<svg xmlns="http://www.w3.org/2000/svg" width="1200" height="900" viewBox="0 0 1200 900">
  <defs><linearGradient id="bg" x1="0" x2="1"><stop stop-color="#0c1220"/><stop offset="1" stop-color="#18264a"/></linearGradient><linearGradient id="a"><stop stop-color="#20d4d0"/><stop offset="1" stop-color="#6c78ff"/></linearGradient></defs>
  <rect width="1200" height="900" fill="url(#bg)"/><rect x="55" y="48" width="1090" height="804" rx="30" fill="#111827" stroke="#33466f" stroke-width="2"/>
  <rect x="55" y="48" width="1090" height="78" rx="30" fill="#172136"/><circle cx="100" cy="87" r="10" fill="#ff625c"/><circle cx="132" cy="87" r="10" fill="#ffbd44"/><circle cx="164" cy="87" r="10" fill="#00ca4e"/>
  <rect x="92" y="170" width="250" height="640" rx="20" fill="#0d1423"/><rect x="378" y="170" width="730" height="182" rx="20" fill="#172238"/><rect x="378" y="382" width="350" height="428" rx="20" fill="#101a2d"/><rect x="758" y="382" width="350" height="428" rx="20" fill="#101a2d"/>
  <rect x="414" y="212" width="250" height="18" rx="9" fill="url(#a)"/><rect x="414" y="252" width="530" height="13" rx="7" fill="#52627d"/><rect x="414" y="286" width="420" height="13" rx="7" fill="#35435d"/>
  <g fill="#273853"><rect x="120" y="220" width="150" height="15" rx="7"/><rect x="120" y="270" width="185" height="15" rx="7"/><rect x="120" y="320" width="125" height="15" rx="7"/></g>
  <g fill="none" stroke="url(#a)" stroke-width="6"><circle cx="552" cy="570" r="66"/><circle cx="936" cy="570" r="66"/><path d="M618 570h252"/></g><g fill="#d8e1f5" font-family="Segoe UI,Arial" font-size="28" font-weight="700"><text x="470" y="690">RESEARCH</text><text x="885" y="690">ACTION</text></g>
</svg>
